%TF.GenerationSoftware,KiCad,Pcbnew,7.0.2*%
%TF.CreationDate,2023-06-14T17:14:45-03:00*%
%TF.ProjectId,digiKey,64696769-4b65-4792-9e6b-696361645f70,V1*%
%TF.SameCoordinates,Original*%
%TF.FileFunction,Legend,Top*%
%TF.FilePolarity,Positive*%
%FSLAX46Y46*%
G04 Gerber Fmt 4.6, Leading zero omitted, Abs format (unit mm)*
G04 Created by KiCad (PCBNEW 7.0.2) date 2023-06-14 17:14:45*
%MOMM*%
%LPD*%
G01*
G04 APERTURE LIST*
%ADD10C,0.150000*%
%ADD11C,0.120000*%
G04 APERTURE END LIST*
D10*
%TO.C,Q1*%
X131621857Y-145129238D02*
X131574238Y-145224476D01*
X131574238Y-145224476D02*
X131479000Y-145319714D01*
X131479000Y-145319714D02*
X131336142Y-145462571D01*
X131336142Y-145462571D02*
X131288523Y-145557809D01*
X131288523Y-145557809D02*
X131288523Y-145653047D01*
X131526619Y-145605428D02*
X131479000Y-145700666D01*
X131479000Y-145700666D02*
X131383761Y-145795904D01*
X131383761Y-145795904D02*
X131193285Y-145843523D01*
X131193285Y-145843523D02*
X130859952Y-145843523D01*
X130859952Y-145843523D02*
X130669476Y-145795904D01*
X130669476Y-145795904D02*
X130574238Y-145700666D01*
X130574238Y-145700666D02*
X130526619Y-145605428D01*
X130526619Y-145605428D02*
X130526619Y-145414952D01*
X130526619Y-145414952D02*
X130574238Y-145319714D01*
X130574238Y-145319714D02*
X130669476Y-145224476D01*
X130669476Y-145224476D02*
X130859952Y-145176857D01*
X130859952Y-145176857D02*
X131193285Y-145176857D01*
X131193285Y-145176857D02*
X131383761Y-145224476D01*
X131383761Y-145224476D02*
X131479000Y-145319714D01*
X131479000Y-145319714D02*
X131526619Y-145414952D01*
X131526619Y-145414952D02*
X131526619Y-145605428D01*
X131526619Y-144224476D02*
X131526619Y-144795904D01*
X131526619Y-144510190D02*
X130526619Y-144510190D01*
X130526619Y-144510190D02*
X130669476Y-144605428D01*
X130669476Y-144605428D02*
X130764714Y-144700666D01*
X130764714Y-144700666D02*
X130812333Y-144795904D01*
%TO.C,R3*%
X147407333Y-152862619D02*
X147074000Y-152386428D01*
X146835905Y-152862619D02*
X146835905Y-151862619D01*
X146835905Y-151862619D02*
X147216857Y-151862619D01*
X147216857Y-151862619D02*
X147312095Y-151910238D01*
X147312095Y-151910238D02*
X147359714Y-151957857D01*
X147359714Y-151957857D02*
X147407333Y-152053095D01*
X147407333Y-152053095D02*
X147407333Y-152195952D01*
X147407333Y-152195952D02*
X147359714Y-152291190D01*
X147359714Y-152291190D02*
X147312095Y-152338809D01*
X147312095Y-152338809D02*
X147216857Y-152386428D01*
X147216857Y-152386428D02*
X146835905Y-152386428D01*
X147740667Y-151862619D02*
X148359714Y-151862619D01*
X148359714Y-151862619D02*
X148026381Y-152243571D01*
X148026381Y-152243571D02*
X148169238Y-152243571D01*
X148169238Y-152243571D02*
X148264476Y-152291190D01*
X148264476Y-152291190D02*
X148312095Y-152338809D01*
X148312095Y-152338809D02*
X148359714Y-152434047D01*
X148359714Y-152434047D02*
X148359714Y-152672142D01*
X148359714Y-152672142D02*
X148312095Y-152767380D01*
X148312095Y-152767380D02*
X148264476Y-152815000D01*
X148264476Y-152815000D02*
X148169238Y-152862619D01*
X148169238Y-152862619D02*
X147883524Y-152862619D01*
X147883524Y-152862619D02*
X147788286Y-152815000D01*
X147788286Y-152815000D02*
X147740667Y-152767380D01*
%TO.C,C2*%
X130923380Y-152566666D02*
X130971000Y-152614285D01*
X130971000Y-152614285D02*
X131018619Y-152757142D01*
X131018619Y-152757142D02*
X131018619Y-152852380D01*
X131018619Y-152852380D02*
X130971000Y-152995237D01*
X130971000Y-152995237D02*
X130875761Y-153090475D01*
X130875761Y-153090475D02*
X130780523Y-153138094D01*
X130780523Y-153138094D02*
X130590047Y-153185713D01*
X130590047Y-153185713D02*
X130447190Y-153185713D01*
X130447190Y-153185713D02*
X130256714Y-153138094D01*
X130256714Y-153138094D02*
X130161476Y-153090475D01*
X130161476Y-153090475D02*
X130066238Y-152995237D01*
X130066238Y-152995237D02*
X130018619Y-152852380D01*
X130018619Y-152852380D02*
X130018619Y-152757142D01*
X130018619Y-152757142D02*
X130066238Y-152614285D01*
X130066238Y-152614285D02*
X130113857Y-152566666D01*
X130113857Y-152185713D02*
X130066238Y-152138094D01*
X130066238Y-152138094D02*
X130018619Y-152042856D01*
X130018619Y-152042856D02*
X130018619Y-151804761D01*
X130018619Y-151804761D02*
X130066238Y-151709523D01*
X130066238Y-151709523D02*
X130113857Y-151661904D01*
X130113857Y-151661904D02*
X130209095Y-151614285D01*
X130209095Y-151614285D02*
X130304333Y-151614285D01*
X130304333Y-151614285D02*
X130447190Y-151661904D01*
X130447190Y-151661904D02*
X131018619Y-152233332D01*
X131018619Y-152233332D02*
X131018619Y-151614285D01*
%TO.C,R5*%
X141432619Y-140374666D02*
X140956428Y-140707999D01*
X141432619Y-140946094D02*
X140432619Y-140946094D01*
X140432619Y-140946094D02*
X140432619Y-140565142D01*
X140432619Y-140565142D02*
X140480238Y-140469904D01*
X140480238Y-140469904D02*
X140527857Y-140422285D01*
X140527857Y-140422285D02*
X140623095Y-140374666D01*
X140623095Y-140374666D02*
X140765952Y-140374666D01*
X140765952Y-140374666D02*
X140861190Y-140422285D01*
X140861190Y-140422285D02*
X140908809Y-140469904D01*
X140908809Y-140469904D02*
X140956428Y-140565142D01*
X140956428Y-140565142D02*
X140956428Y-140946094D01*
X140432619Y-139469904D02*
X140432619Y-139946094D01*
X140432619Y-139946094D02*
X140908809Y-139993713D01*
X140908809Y-139993713D02*
X140861190Y-139946094D01*
X140861190Y-139946094D02*
X140813571Y-139850856D01*
X140813571Y-139850856D02*
X140813571Y-139612761D01*
X140813571Y-139612761D02*
X140861190Y-139517523D01*
X140861190Y-139517523D02*
X140908809Y-139469904D01*
X140908809Y-139469904D02*
X141004047Y-139422285D01*
X141004047Y-139422285D02*
X141242142Y-139422285D01*
X141242142Y-139422285D02*
X141337380Y-139469904D01*
X141337380Y-139469904D02*
X141385000Y-139517523D01*
X141385000Y-139517523D02*
X141432619Y-139612761D01*
X141432619Y-139612761D02*
X141432619Y-139850856D01*
X141432619Y-139850856D02*
X141385000Y-139946094D01*
X141385000Y-139946094D02*
X141337380Y-139993713D01*
%TO.C,R1*%
X158958619Y-144438666D02*
X158482428Y-144771999D01*
X158958619Y-145010094D02*
X157958619Y-145010094D01*
X157958619Y-145010094D02*
X157958619Y-144629142D01*
X157958619Y-144629142D02*
X158006238Y-144533904D01*
X158006238Y-144533904D02*
X158053857Y-144486285D01*
X158053857Y-144486285D02*
X158149095Y-144438666D01*
X158149095Y-144438666D02*
X158291952Y-144438666D01*
X158291952Y-144438666D02*
X158387190Y-144486285D01*
X158387190Y-144486285D02*
X158434809Y-144533904D01*
X158434809Y-144533904D02*
X158482428Y-144629142D01*
X158482428Y-144629142D02*
X158482428Y-145010094D01*
X158958619Y-143486285D02*
X158958619Y-144057713D01*
X158958619Y-143771999D02*
X157958619Y-143771999D01*
X157958619Y-143771999D02*
X158101476Y-143867237D01*
X158101476Y-143867237D02*
X158196714Y-143962475D01*
X158196714Y-143962475D02*
X158244333Y-144057713D01*
%TO.C,C1*%
X155883333Y-151067380D02*
X155835714Y-151115000D01*
X155835714Y-151115000D02*
X155692857Y-151162619D01*
X155692857Y-151162619D02*
X155597619Y-151162619D01*
X155597619Y-151162619D02*
X155454762Y-151115000D01*
X155454762Y-151115000D02*
X155359524Y-151019761D01*
X155359524Y-151019761D02*
X155311905Y-150924523D01*
X155311905Y-150924523D02*
X155264286Y-150734047D01*
X155264286Y-150734047D02*
X155264286Y-150591190D01*
X155264286Y-150591190D02*
X155311905Y-150400714D01*
X155311905Y-150400714D02*
X155359524Y-150305476D01*
X155359524Y-150305476D02*
X155454762Y-150210238D01*
X155454762Y-150210238D02*
X155597619Y-150162619D01*
X155597619Y-150162619D02*
X155692857Y-150162619D01*
X155692857Y-150162619D02*
X155835714Y-150210238D01*
X155835714Y-150210238D02*
X155883333Y-150257857D01*
X156835714Y-151162619D02*
X156264286Y-151162619D01*
X156550000Y-151162619D02*
X156550000Y-150162619D01*
X156550000Y-150162619D02*
X156454762Y-150305476D01*
X156454762Y-150305476D02*
X156359524Y-150400714D01*
X156359524Y-150400714D02*
X156264286Y-150448333D01*
%TO.C,R7*%
X138130619Y-150280666D02*
X137654428Y-150613999D01*
X138130619Y-150852094D02*
X137130619Y-150852094D01*
X137130619Y-150852094D02*
X137130619Y-150471142D01*
X137130619Y-150471142D02*
X137178238Y-150375904D01*
X137178238Y-150375904D02*
X137225857Y-150328285D01*
X137225857Y-150328285D02*
X137321095Y-150280666D01*
X137321095Y-150280666D02*
X137463952Y-150280666D01*
X137463952Y-150280666D02*
X137559190Y-150328285D01*
X137559190Y-150328285D02*
X137606809Y-150375904D01*
X137606809Y-150375904D02*
X137654428Y-150471142D01*
X137654428Y-150471142D02*
X137654428Y-150852094D01*
X137130619Y-149947332D02*
X137130619Y-149280666D01*
X137130619Y-149280666D02*
X138130619Y-149709237D01*
%TO.C,R6*%
X138130619Y-140374666D02*
X137654428Y-140707999D01*
X138130619Y-140946094D02*
X137130619Y-140946094D01*
X137130619Y-140946094D02*
X137130619Y-140565142D01*
X137130619Y-140565142D02*
X137178238Y-140469904D01*
X137178238Y-140469904D02*
X137225857Y-140422285D01*
X137225857Y-140422285D02*
X137321095Y-140374666D01*
X137321095Y-140374666D02*
X137463952Y-140374666D01*
X137463952Y-140374666D02*
X137559190Y-140422285D01*
X137559190Y-140422285D02*
X137606809Y-140469904D01*
X137606809Y-140469904D02*
X137654428Y-140565142D01*
X137654428Y-140565142D02*
X137654428Y-140946094D01*
X137130619Y-139517523D02*
X137130619Y-139707999D01*
X137130619Y-139707999D02*
X137178238Y-139803237D01*
X137178238Y-139803237D02*
X137225857Y-139850856D01*
X137225857Y-139850856D02*
X137368714Y-139946094D01*
X137368714Y-139946094D02*
X137559190Y-139993713D01*
X137559190Y-139993713D02*
X137940142Y-139993713D01*
X137940142Y-139993713D02*
X138035380Y-139946094D01*
X138035380Y-139946094D02*
X138083000Y-139898475D01*
X138083000Y-139898475D02*
X138130619Y-139803237D01*
X138130619Y-139803237D02*
X138130619Y-139612761D01*
X138130619Y-139612761D02*
X138083000Y-139517523D01*
X138083000Y-139517523D02*
X138035380Y-139469904D01*
X138035380Y-139469904D02*
X137940142Y-139422285D01*
X137940142Y-139422285D02*
X137702047Y-139422285D01*
X137702047Y-139422285D02*
X137606809Y-139469904D01*
X137606809Y-139469904D02*
X137559190Y-139517523D01*
X137559190Y-139517523D02*
X137511571Y-139612761D01*
X137511571Y-139612761D02*
X137511571Y-139803237D01*
X137511571Y-139803237D02*
X137559190Y-139898475D01*
X137559190Y-139898475D02*
X137606809Y-139946094D01*
X137606809Y-139946094D02*
X137702047Y-139993713D01*
%TO.C,R4*%
X141432619Y-150026666D02*
X140956428Y-150359999D01*
X141432619Y-150598094D02*
X140432619Y-150598094D01*
X140432619Y-150598094D02*
X140432619Y-150217142D01*
X140432619Y-150217142D02*
X140480238Y-150121904D01*
X140480238Y-150121904D02*
X140527857Y-150074285D01*
X140527857Y-150074285D02*
X140623095Y-150026666D01*
X140623095Y-150026666D02*
X140765952Y-150026666D01*
X140765952Y-150026666D02*
X140861190Y-150074285D01*
X140861190Y-150074285D02*
X140908809Y-150121904D01*
X140908809Y-150121904D02*
X140956428Y-150217142D01*
X140956428Y-150217142D02*
X140956428Y-150598094D01*
X140765952Y-149169523D02*
X141432619Y-149169523D01*
X140385000Y-149407618D02*
X141099285Y-149645713D01*
X141099285Y-149645713D02*
X141099285Y-149026666D01*
%TO.C,U1*%
X147290619Y-146303904D02*
X148100142Y-146303904D01*
X148100142Y-146303904D02*
X148195380Y-146256285D01*
X148195380Y-146256285D02*
X148243000Y-146208666D01*
X148243000Y-146208666D02*
X148290619Y-146113428D01*
X148290619Y-146113428D02*
X148290619Y-145922952D01*
X148290619Y-145922952D02*
X148243000Y-145827714D01*
X148243000Y-145827714D02*
X148195380Y-145780095D01*
X148195380Y-145780095D02*
X148100142Y-145732476D01*
X148100142Y-145732476D02*
X147290619Y-145732476D01*
X148290619Y-144732476D02*
X148290619Y-145303904D01*
X148290619Y-145018190D02*
X147290619Y-145018190D01*
X147290619Y-145018190D02*
X147433476Y-145113428D01*
X147433476Y-145113428D02*
X147528714Y-145208666D01*
X147528714Y-145208666D02*
X147576333Y-145303904D01*
%TO.C,D1*%
X153917619Y-111863094D02*
X152917619Y-111863094D01*
X152917619Y-111863094D02*
X152917619Y-111624999D01*
X152917619Y-111624999D02*
X152965238Y-111482142D01*
X152965238Y-111482142D02*
X153060476Y-111386904D01*
X153060476Y-111386904D02*
X153155714Y-111339285D01*
X153155714Y-111339285D02*
X153346190Y-111291666D01*
X153346190Y-111291666D02*
X153489047Y-111291666D01*
X153489047Y-111291666D02*
X153679523Y-111339285D01*
X153679523Y-111339285D02*
X153774761Y-111386904D01*
X153774761Y-111386904D02*
X153870000Y-111482142D01*
X153870000Y-111482142D02*
X153917619Y-111624999D01*
X153917619Y-111624999D02*
X153917619Y-111863094D01*
X153917619Y-110339285D02*
X153917619Y-110910713D01*
X153917619Y-110624999D02*
X152917619Y-110624999D01*
X152917619Y-110624999D02*
X153060476Y-110720237D01*
X153060476Y-110720237D02*
X153155714Y-110815475D01*
X153155714Y-110815475D02*
X153203333Y-110910713D01*
%TO.C,D2*%
X142487619Y-111863094D02*
X141487619Y-111863094D01*
X141487619Y-111863094D02*
X141487619Y-111624999D01*
X141487619Y-111624999D02*
X141535238Y-111482142D01*
X141535238Y-111482142D02*
X141630476Y-111386904D01*
X141630476Y-111386904D02*
X141725714Y-111339285D01*
X141725714Y-111339285D02*
X141916190Y-111291666D01*
X141916190Y-111291666D02*
X142059047Y-111291666D01*
X142059047Y-111291666D02*
X142249523Y-111339285D01*
X142249523Y-111339285D02*
X142344761Y-111386904D01*
X142344761Y-111386904D02*
X142440000Y-111482142D01*
X142440000Y-111482142D02*
X142487619Y-111624999D01*
X142487619Y-111624999D02*
X142487619Y-111863094D01*
X141582857Y-110910713D02*
X141535238Y-110863094D01*
X141535238Y-110863094D02*
X141487619Y-110767856D01*
X141487619Y-110767856D02*
X141487619Y-110529761D01*
X141487619Y-110529761D02*
X141535238Y-110434523D01*
X141535238Y-110434523D02*
X141582857Y-110386904D01*
X141582857Y-110386904D02*
X141678095Y-110339285D01*
X141678095Y-110339285D02*
X141773333Y-110339285D01*
X141773333Y-110339285D02*
X141916190Y-110386904D01*
X141916190Y-110386904D02*
X142487619Y-110958332D01*
X142487619Y-110958332D02*
X142487619Y-110339285D01*
%TO.C,R2*%
X155656619Y-144438666D02*
X155180428Y-144771999D01*
X155656619Y-145010094D02*
X154656619Y-145010094D01*
X154656619Y-145010094D02*
X154656619Y-144629142D01*
X154656619Y-144629142D02*
X154704238Y-144533904D01*
X154704238Y-144533904D02*
X154751857Y-144486285D01*
X154751857Y-144486285D02*
X154847095Y-144438666D01*
X154847095Y-144438666D02*
X154989952Y-144438666D01*
X154989952Y-144438666D02*
X155085190Y-144486285D01*
X155085190Y-144486285D02*
X155132809Y-144533904D01*
X155132809Y-144533904D02*
X155180428Y-144629142D01*
X155180428Y-144629142D02*
X155180428Y-145010094D01*
X154751857Y-144057713D02*
X154704238Y-144010094D01*
X154704238Y-144010094D02*
X154656619Y-143914856D01*
X154656619Y-143914856D02*
X154656619Y-143676761D01*
X154656619Y-143676761D02*
X154704238Y-143581523D01*
X154704238Y-143581523D02*
X154751857Y-143533904D01*
X154751857Y-143533904D02*
X154847095Y-143486285D01*
X154847095Y-143486285D02*
X154942333Y-143486285D01*
X154942333Y-143486285D02*
X155085190Y-143533904D01*
X155085190Y-143533904D02*
X155656619Y-144105332D01*
X155656619Y-144105332D02*
X155656619Y-143486285D01*
D11*
%TO.C,Q1*%
X134692000Y-146834000D02*
X134692000Y-143234000D01*
X130242000Y-145034000D02*
G75*
G03*
X134680478Y-146872478I2600000J0D01*
G01*
X134680478Y-143195522D02*
G75*
G03*
X130242000Y-145034000I-1838478J-1838478D01*
G01*
%TO.C,R3*%
X150844000Y-153770000D02*
X144304000Y-153770000D01*
X150844000Y-153440000D02*
X150844000Y-153770000D01*
X150844000Y-151360000D02*
X150844000Y-151030000D01*
X150844000Y-151030000D02*
X144304000Y-151030000D01*
X144304000Y-153770000D02*
X144304000Y-153440000D01*
X144304000Y-151030000D02*
X144304000Y-151360000D01*
%TO.C,C2*%
X130749000Y-154904241D02*
X130749000Y-154274241D01*
X130434000Y-154589241D02*
X131064000Y-154589241D01*
X129358000Y-151404000D02*
X135818000Y-151404000D01*
X129358000Y-151364000D02*
X135818000Y-151364000D01*
X129358000Y-151324000D02*
X135818000Y-151324000D01*
X129360000Y-151284000D02*
X135816000Y-151284000D01*
X129361000Y-151244000D02*
X135815000Y-151244000D01*
X129364000Y-151204000D02*
X135812000Y-151204000D01*
X129366000Y-151164000D02*
X131548000Y-151164000D01*
X133628000Y-151164000D02*
X135810000Y-151164000D01*
X129370000Y-151124000D02*
X131548000Y-151124000D01*
X133628000Y-151124000D02*
X135806000Y-151124000D01*
X129373000Y-151084000D02*
X131548000Y-151084000D01*
X133628000Y-151084000D02*
X135803000Y-151084000D01*
X129377000Y-151044000D02*
X131548000Y-151044000D01*
X133628000Y-151044000D02*
X135799000Y-151044000D01*
X129382000Y-151004000D02*
X131548000Y-151004000D01*
X133628000Y-151004000D02*
X135794000Y-151004000D01*
X129387000Y-150964000D02*
X131548000Y-150964000D01*
X133628000Y-150964000D02*
X135789000Y-150964000D01*
X129393000Y-150924000D02*
X131548000Y-150924000D01*
X133628000Y-150924000D02*
X135783000Y-150924000D01*
X129399000Y-150884000D02*
X131548000Y-150884000D01*
X133628000Y-150884000D02*
X135777000Y-150884000D01*
X129406000Y-150844000D02*
X131548000Y-150844000D01*
X133628000Y-150844000D02*
X135770000Y-150844000D01*
X129413000Y-150804000D02*
X131548000Y-150804000D01*
X133628000Y-150804000D02*
X135763000Y-150804000D01*
X129421000Y-150764000D02*
X131548000Y-150764000D01*
X133628000Y-150764000D02*
X135755000Y-150764000D01*
X129429000Y-150724000D02*
X131548000Y-150724000D01*
X133628000Y-150724000D02*
X135747000Y-150724000D01*
X129438000Y-150683000D02*
X131548000Y-150683000D01*
X133628000Y-150683000D02*
X135738000Y-150683000D01*
X129447000Y-150643000D02*
X131548000Y-150643000D01*
X133628000Y-150643000D02*
X135729000Y-150643000D01*
X129457000Y-150603000D02*
X131548000Y-150603000D01*
X133628000Y-150603000D02*
X135719000Y-150603000D01*
X129467000Y-150563000D02*
X131548000Y-150563000D01*
X133628000Y-150563000D02*
X135709000Y-150563000D01*
X129478000Y-150523000D02*
X131548000Y-150523000D01*
X133628000Y-150523000D02*
X135698000Y-150523000D01*
X129490000Y-150483000D02*
X131548000Y-150483000D01*
X133628000Y-150483000D02*
X135686000Y-150483000D01*
X129502000Y-150443000D02*
X131548000Y-150443000D01*
X133628000Y-150443000D02*
X135674000Y-150443000D01*
X129514000Y-150403000D02*
X131548000Y-150403000D01*
X133628000Y-150403000D02*
X135662000Y-150403000D01*
X129527000Y-150363000D02*
X131548000Y-150363000D01*
X133628000Y-150363000D02*
X135649000Y-150363000D01*
X129541000Y-150323000D02*
X131548000Y-150323000D01*
X133628000Y-150323000D02*
X135635000Y-150323000D01*
X129555000Y-150283000D02*
X131548000Y-150283000D01*
X133628000Y-150283000D02*
X135621000Y-150283000D01*
X129570000Y-150243000D02*
X131548000Y-150243000D01*
X133628000Y-150243000D02*
X135606000Y-150243000D01*
X129586000Y-150203000D02*
X131548000Y-150203000D01*
X133628000Y-150203000D02*
X135590000Y-150203000D01*
X129602000Y-150163000D02*
X131548000Y-150163000D01*
X133628000Y-150163000D02*
X135574000Y-150163000D01*
X129618000Y-150123000D02*
X131548000Y-150123000D01*
X133628000Y-150123000D02*
X135558000Y-150123000D01*
X129636000Y-150083000D02*
X131548000Y-150083000D01*
X133628000Y-150083000D02*
X135540000Y-150083000D01*
X129654000Y-150043000D02*
X131548000Y-150043000D01*
X133628000Y-150043000D02*
X135522000Y-150043000D01*
X129672000Y-150003000D02*
X131548000Y-150003000D01*
X133628000Y-150003000D02*
X135504000Y-150003000D01*
X129692000Y-149963000D02*
X131548000Y-149963000D01*
X133628000Y-149963000D02*
X135484000Y-149963000D01*
X129712000Y-149923000D02*
X131548000Y-149923000D01*
X133628000Y-149923000D02*
X135464000Y-149923000D01*
X129732000Y-149883000D02*
X131548000Y-149883000D01*
X133628000Y-149883000D02*
X135444000Y-149883000D01*
X129754000Y-149843000D02*
X131548000Y-149843000D01*
X133628000Y-149843000D02*
X135422000Y-149843000D01*
X129776000Y-149803000D02*
X131548000Y-149803000D01*
X133628000Y-149803000D02*
X135400000Y-149803000D01*
X129798000Y-149763000D02*
X131548000Y-149763000D01*
X133628000Y-149763000D02*
X135378000Y-149763000D01*
X129822000Y-149723000D02*
X131548000Y-149723000D01*
X133628000Y-149723000D02*
X135354000Y-149723000D01*
X129846000Y-149683000D02*
X131548000Y-149683000D01*
X133628000Y-149683000D02*
X135330000Y-149683000D01*
X129872000Y-149643000D02*
X131548000Y-149643000D01*
X133628000Y-149643000D02*
X135304000Y-149643000D01*
X129898000Y-149603000D02*
X131548000Y-149603000D01*
X133628000Y-149603000D02*
X135278000Y-149603000D01*
X129924000Y-149563000D02*
X131548000Y-149563000D01*
X133628000Y-149563000D02*
X135252000Y-149563000D01*
X129952000Y-149523000D02*
X131548000Y-149523000D01*
X133628000Y-149523000D02*
X135224000Y-149523000D01*
X129981000Y-149483000D02*
X131548000Y-149483000D01*
X133628000Y-149483000D02*
X135195000Y-149483000D01*
X130010000Y-149443000D02*
X131548000Y-149443000D01*
X133628000Y-149443000D02*
X135166000Y-149443000D01*
X130040000Y-149403000D02*
X131548000Y-149403000D01*
X133628000Y-149403000D02*
X135136000Y-149403000D01*
X130072000Y-149363000D02*
X131548000Y-149363000D01*
X133628000Y-149363000D02*
X135104000Y-149363000D01*
X130104000Y-149323000D02*
X131548000Y-149323000D01*
X133628000Y-149323000D02*
X135072000Y-149323000D01*
X130138000Y-149283000D02*
X131548000Y-149283000D01*
X133628000Y-149283000D02*
X135038000Y-149283000D01*
X130172000Y-149243000D02*
X131548000Y-149243000D01*
X133628000Y-149243000D02*
X135004000Y-149243000D01*
X130208000Y-149203000D02*
X131548000Y-149203000D01*
X133628000Y-149203000D02*
X134968000Y-149203000D01*
X130245000Y-149163000D02*
X131548000Y-149163000D01*
X133628000Y-149163000D02*
X134931000Y-149163000D01*
X130283000Y-149123000D02*
X131548000Y-149123000D01*
X133628000Y-149123000D02*
X134893000Y-149123000D01*
X130323000Y-149083000D02*
X134853000Y-149083000D01*
X130364000Y-149043000D02*
X134812000Y-149043000D01*
X130406000Y-149003000D02*
X134770000Y-149003000D01*
X130451000Y-148963000D02*
X134725000Y-148963000D01*
X130496000Y-148923000D02*
X134680000Y-148923000D01*
X130544000Y-148883000D02*
X134632000Y-148883000D01*
X130593000Y-148843000D02*
X134583000Y-148843000D01*
X130644000Y-148803000D02*
X134532000Y-148803000D01*
X130698000Y-148763000D02*
X134478000Y-148763000D01*
X130754000Y-148723000D02*
X134422000Y-148723000D01*
X130812000Y-148683000D02*
X134364000Y-148683000D01*
X130874000Y-148643000D02*
X134302000Y-148643000D01*
X130938000Y-148603000D02*
X134238000Y-148603000D01*
X131007000Y-148563000D02*
X134169000Y-148563000D01*
X131079000Y-148523000D02*
X134097000Y-148523000D01*
X131156000Y-148483000D02*
X134020000Y-148483000D01*
X131238000Y-148443000D02*
X133938000Y-148443000D01*
X131326000Y-148403000D02*
X133850000Y-148403000D01*
X131423000Y-148363000D02*
X133753000Y-148363000D01*
X131529000Y-148323000D02*
X133647000Y-148323000D01*
X131648000Y-148283000D02*
X133528000Y-148283000D01*
X131786000Y-148243000D02*
X133390000Y-148243000D01*
X131955000Y-148203000D02*
X133221000Y-148203000D01*
X132186000Y-148163000D02*
X132990000Y-148163000D01*
X135858000Y-151404000D02*
G75*
G03*
X135858000Y-151404000I-3270000J0D01*
G01*
%TO.C,R5*%
X139600000Y-143224000D02*
X139600000Y-136684000D01*
X139930000Y-143224000D02*
X139600000Y-143224000D01*
X142010000Y-143224000D02*
X142340000Y-143224000D01*
X142340000Y-143224000D02*
X142340000Y-136684000D01*
X139600000Y-136684000D02*
X139930000Y-136684000D01*
X142340000Y-136684000D02*
X142010000Y-136684000D01*
%TO.C,R1*%
X159866000Y-141002000D02*
X159866000Y-147542000D01*
X159536000Y-141002000D02*
X159866000Y-141002000D01*
X157456000Y-141002000D02*
X157126000Y-141002000D01*
X157126000Y-141002000D02*
X157126000Y-147542000D01*
X159866000Y-147542000D02*
X159536000Y-147542000D01*
X157126000Y-147542000D02*
X157456000Y-147542000D01*
%TO.C,C1*%
X154183225Y-150671000D02*
X154683225Y-150671000D01*
X154433225Y-150421000D02*
X154433225Y-150921000D01*
X156988000Y-149566000D02*
X156988000Y-151106000D01*
X156988000Y-153186000D02*
X156988000Y-154726000D01*
X157028000Y-149566000D02*
X157028000Y-151106000D01*
X157028000Y-153186000D02*
X157028000Y-154726000D01*
X157068000Y-149567000D02*
X157068000Y-151106000D01*
X157068000Y-153186000D02*
X157068000Y-154725000D01*
X157108000Y-149568000D02*
X157108000Y-151106000D01*
X157108000Y-153186000D02*
X157108000Y-154724000D01*
X157148000Y-149570000D02*
X157148000Y-151106000D01*
X157148000Y-153186000D02*
X157148000Y-154722000D01*
X157188000Y-149573000D02*
X157188000Y-151106000D01*
X157188000Y-153186000D02*
X157188000Y-154719000D01*
X157228000Y-149577000D02*
X157228000Y-151106000D01*
X157228000Y-153186000D02*
X157228000Y-154715000D01*
X157268000Y-149581000D02*
X157268000Y-151106000D01*
X157268000Y-153186000D02*
X157268000Y-154711000D01*
X157308000Y-149585000D02*
X157308000Y-151106000D01*
X157308000Y-153186000D02*
X157308000Y-154707000D01*
X157348000Y-149590000D02*
X157348000Y-151106000D01*
X157348000Y-153186000D02*
X157348000Y-154702000D01*
X157388000Y-149596000D02*
X157388000Y-151106000D01*
X157388000Y-153186000D02*
X157388000Y-154696000D01*
X157428000Y-149603000D02*
X157428000Y-151106000D01*
X157428000Y-153186000D02*
X157428000Y-154689000D01*
X157468000Y-149610000D02*
X157468000Y-151106000D01*
X157468000Y-153186000D02*
X157468000Y-154682000D01*
X157508000Y-149618000D02*
X157508000Y-151106000D01*
X157508000Y-153186000D02*
X157508000Y-154674000D01*
X157548000Y-149626000D02*
X157548000Y-151106000D01*
X157548000Y-153186000D02*
X157548000Y-154666000D01*
X157588000Y-149635000D02*
X157588000Y-151106000D01*
X157588000Y-153186000D02*
X157588000Y-154657000D01*
X157628000Y-149645000D02*
X157628000Y-151106000D01*
X157628000Y-153186000D02*
X157628000Y-154647000D01*
X157668000Y-149655000D02*
X157668000Y-151106000D01*
X157668000Y-153186000D02*
X157668000Y-154637000D01*
X157709000Y-149666000D02*
X157709000Y-151106000D01*
X157709000Y-153186000D02*
X157709000Y-154626000D01*
X157749000Y-149678000D02*
X157749000Y-151106000D01*
X157749000Y-153186000D02*
X157749000Y-154614000D01*
X157789000Y-149691000D02*
X157789000Y-151106000D01*
X157789000Y-153186000D02*
X157789000Y-154601000D01*
X157829000Y-149704000D02*
X157829000Y-151106000D01*
X157829000Y-153186000D02*
X157829000Y-154588000D01*
X157869000Y-149718000D02*
X157869000Y-151106000D01*
X157869000Y-153186000D02*
X157869000Y-154574000D01*
X157909000Y-149732000D02*
X157909000Y-151106000D01*
X157909000Y-153186000D02*
X157909000Y-154560000D01*
X157949000Y-149748000D02*
X157949000Y-151106000D01*
X157949000Y-153186000D02*
X157949000Y-154544000D01*
X157989000Y-149764000D02*
X157989000Y-151106000D01*
X157989000Y-153186000D02*
X157989000Y-154528000D01*
X158029000Y-149781000D02*
X158029000Y-151106000D01*
X158029000Y-153186000D02*
X158029000Y-154511000D01*
X158069000Y-149798000D02*
X158069000Y-151106000D01*
X158069000Y-153186000D02*
X158069000Y-154494000D01*
X158109000Y-149817000D02*
X158109000Y-151106000D01*
X158109000Y-153186000D02*
X158109000Y-154475000D01*
X158149000Y-149836000D02*
X158149000Y-151106000D01*
X158149000Y-153186000D02*
X158149000Y-154456000D01*
X158189000Y-149856000D02*
X158189000Y-151106000D01*
X158189000Y-153186000D02*
X158189000Y-154436000D01*
X158229000Y-149878000D02*
X158229000Y-151106000D01*
X158229000Y-153186000D02*
X158229000Y-154414000D01*
X158269000Y-149899000D02*
X158269000Y-151106000D01*
X158269000Y-153186000D02*
X158269000Y-154393000D01*
X158309000Y-149922000D02*
X158309000Y-151106000D01*
X158309000Y-153186000D02*
X158309000Y-154370000D01*
X158349000Y-149946000D02*
X158349000Y-151106000D01*
X158349000Y-153186000D02*
X158349000Y-154346000D01*
X158389000Y-149971000D02*
X158389000Y-151106000D01*
X158389000Y-153186000D02*
X158389000Y-154321000D01*
X158429000Y-149997000D02*
X158429000Y-151106000D01*
X158429000Y-153186000D02*
X158429000Y-154295000D01*
X158469000Y-150024000D02*
X158469000Y-151106000D01*
X158469000Y-153186000D02*
X158469000Y-154268000D01*
X158509000Y-150051000D02*
X158509000Y-151106000D01*
X158509000Y-153186000D02*
X158509000Y-154241000D01*
X158549000Y-150081000D02*
X158549000Y-151106000D01*
X158549000Y-153186000D02*
X158549000Y-154211000D01*
X158589000Y-150111000D02*
X158589000Y-151106000D01*
X158589000Y-153186000D02*
X158589000Y-154181000D01*
X158629000Y-150142000D02*
X158629000Y-151106000D01*
X158629000Y-153186000D02*
X158629000Y-154150000D01*
X158669000Y-150175000D02*
X158669000Y-151106000D01*
X158669000Y-153186000D02*
X158669000Y-154117000D01*
X158709000Y-150209000D02*
X158709000Y-151106000D01*
X158709000Y-153186000D02*
X158709000Y-154083000D01*
X158749000Y-150245000D02*
X158749000Y-151106000D01*
X158749000Y-153186000D02*
X158749000Y-154047000D01*
X158789000Y-150282000D02*
X158789000Y-151106000D01*
X158789000Y-153186000D02*
X158789000Y-154010000D01*
X158829000Y-150320000D02*
X158829000Y-151106000D01*
X158829000Y-153186000D02*
X158829000Y-153972000D01*
X158869000Y-150361000D02*
X158869000Y-151106000D01*
X158869000Y-153186000D02*
X158869000Y-153931000D01*
X158909000Y-150403000D02*
X158909000Y-151106000D01*
X158909000Y-153186000D02*
X158909000Y-153889000D01*
X158949000Y-150447000D02*
X158949000Y-151106000D01*
X158949000Y-153186000D02*
X158949000Y-153845000D01*
X158989000Y-150493000D02*
X158989000Y-151106000D01*
X158989000Y-153186000D02*
X158989000Y-153799000D01*
X159029000Y-150541000D02*
X159029000Y-153751000D01*
X159069000Y-150592000D02*
X159069000Y-153700000D01*
X159109000Y-150646000D02*
X159109000Y-153646000D01*
X159149000Y-150703000D02*
X159149000Y-153589000D01*
X159189000Y-150763000D02*
X159189000Y-153529000D01*
X159229000Y-150827000D02*
X159229000Y-153465000D01*
X159269000Y-150895000D02*
X159269000Y-153397000D01*
X159309000Y-150968000D02*
X159309000Y-153324000D01*
X159349000Y-151048000D02*
X159349000Y-153244000D01*
X159389000Y-151135000D02*
X159389000Y-153157000D01*
X159429000Y-151231000D02*
X159429000Y-153061000D01*
X159469000Y-151341000D02*
X159469000Y-152951000D01*
X159509000Y-151469000D02*
X159509000Y-152823000D01*
X159549000Y-151628000D02*
X159549000Y-152664000D01*
X159589000Y-151862000D02*
X159589000Y-152430000D01*
X159608000Y-152146000D02*
G75*
G03*
X159608000Y-152146000I-2620000J0D01*
G01*
%TO.C,R7*%
X136298000Y-153384000D02*
X136298000Y-146844000D01*
X136628000Y-153384000D02*
X136298000Y-153384000D01*
X138708000Y-153384000D02*
X139038000Y-153384000D01*
X139038000Y-153384000D02*
X139038000Y-146844000D01*
X136298000Y-146844000D02*
X136628000Y-146844000D01*
X139038000Y-146844000D02*
X138708000Y-146844000D01*
%TO.C,R6*%
X136298000Y-143224000D02*
X136298000Y-136684000D01*
X136628000Y-143224000D02*
X136298000Y-143224000D01*
X138708000Y-143224000D02*
X139038000Y-143224000D01*
X139038000Y-143224000D02*
X139038000Y-136684000D01*
X136298000Y-136684000D02*
X136628000Y-136684000D01*
X139038000Y-136684000D02*
X138708000Y-136684000D01*
%TO.C,R4*%
X139600000Y-153384000D02*
X139600000Y-146844000D01*
X139930000Y-153384000D02*
X139600000Y-153384000D01*
X142010000Y-153384000D02*
X142340000Y-153384000D01*
X142340000Y-153384000D02*
X142340000Y-146844000D01*
X139600000Y-146844000D02*
X139930000Y-146844000D01*
X142340000Y-146844000D02*
X142010000Y-146844000D01*
%TO.C,U1*%
X142942000Y-148446000D02*
X153222000Y-148446000D01*
X153222000Y-148446000D02*
X153222000Y-143146000D01*
X142942000Y-146796000D02*
X142942000Y-148446000D01*
X142942000Y-143146000D02*
X142942000Y-144796000D01*
X153222000Y-143146000D02*
X142942000Y-143146000D01*
X142942000Y-146796000D02*
G75*
G03*
X142942000Y-144796000I0J1000000D01*
G01*
%TO.C,D1*%
X151731000Y-109565000D02*
X151575000Y-109565000D01*
X149415000Y-109565000D02*
X149259000Y-109565000D01*
X151573608Y-112797334D02*
G75*
G03*
X151730515Y-109565001I-1078608J1672334D01*
G01*
X151574836Y-112166129D02*
G75*
G03*
X151574999Y-110084040I-1079836J1041129D01*
G01*
X149415001Y-110084040D02*
G75*
G03*
X149415164Y-112166129I1079999J-1040960D01*
G01*
X149259485Y-109565001D02*
G75*
G03*
X149416392Y-112797334I1235515J-1559999D01*
G01*
%TO.C,D2*%
X140301000Y-109565000D02*
X140145000Y-109565000D01*
X137985000Y-109565000D02*
X137829000Y-109565000D01*
X140143608Y-112797334D02*
G75*
G03*
X140300515Y-109565001I-1078608J1672334D01*
G01*
X140144836Y-112166129D02*
G75*
G03*
X140144999Y-110084040I-1079836J1041129D01*
G01*
X137985001Y-110084040D02*
G75*
G03*
X137985164Y-112166129I1079999J-1040960D01*
G01*
X137829485Y-109565001D02*
G75*
G03*
X137986392Y-112797334I1235515J-1559999D01*
G01*
%TO.C,R2*%
X156564000Y-141002000D02*
X156564000Y-147542000D01*
X156234000Y-141002000D02*
X156564000Y-141002000D01*
X154154000Y-141002000D02*
X153824000Y-141002000D01*
X153824000Y-141002000D02*
X153824000Y-147542000D01*
X156564000Y-147542000D02*
X156234000Y-147542000D01*
X153824000Y-147542000D02*
X154154000Y-147542000D01*
%TD*%
M02*
