M48
INCH,TZ
T1C0.0295
T2C0.0315
T3C0.0354
%
G90
G05
T1
X52300Y-56600
X52300Y-57100
X52300Y-57600
T2
X52200Y-59116
X52200Y-60100
X54200Y-53600
X54200Y-56600
X54200Y-57600
X54200Y-60600
X55500Y-53600
X55500Y-56600
X55500Y-57600
X55500Y-60600
X56600Y-60000
X56800Y-55900
X56800Y-58900
X57800Y-55900
X57800Y-58900
X58800Y-55900
X58800Y-58900
X59600Y-60000
X59800Y-55900
X59800Y-58900
X61100Y-55300
X61100Y-58300
X61413Y-59900
X62200Y-59900
X62400Y-55300
X62400Y-58300
T3
X54750Y-43250
X54750Y-44250
X59250Y-43250
X59250Y-44250
T0
M30
